<mxfile host="app.diagrams.net" agent="Mozilla/5.0 (Windows NT 10.0; Win64; x64) AppleWebKit/537.36 (KHTML, like Gecko) Chrome/140.0.0.0 Safari/537.36" version="28.2.6">
  <diagram name="PÃ¡gina-1" id="GPNb7k4n-Qf6bsFY_Oe7">
    <mxGraphModel dx="1426" dy="785" grid="1" gridSize="10" guides="1" tooltips="1" connect="1" arrows="1" fold="1" page="1" pageScale="1" pageWidth="3300" pageHeight="4681" math="0" shadow="0">
      <root>
        <mxCell id="0" />
        <mxCell id="1" parent="0" />
        <mxCell id="2" value="Tool" style="swimlane;fontStyle=1;align=center;verticalAlign=top;childLayout=stackLayout;horizontal=1;startSize=45.12;horizontalStack=0;resizeParent=1;resizeParentMax=0;resizeLast=0;collapsible=0;marginBottom=0;" parent="1" vertex="1">
          <mxGeometry x="245" y="778" width="425" height="383.12" as="geometry" />
        </mxCell>
        <mxCell id="3" value="-string sku" style="text;strokeColor=none;fillColor=none;align=left;verticalAlign=top;spacingLeft=4;spacingRight=4;overflow=hidden;rotatable=0;points=[[0,0.5],[1,0.5]];portConstraint=eastwest;" parent="2" vertex="1">
          <mxGeometry y="45.12" width="425" height="30" as="geometry" />
        </mxCell>
        <mxCell id="4" value="-string nombre" style="text;strokeColor=none;fillColor=none;align=left;verticalAlign=top;spacingLeft=4;spacingRight=4;overflow=hidden;rotatable=0;points=[[0,0.5],[1,0.5]];portConstraint=eastwest;" parent="2" vertex="1">
          <mxGeometry y="75.12" width="425" height="30" as="geometry" />
        </mxCell>
        <mxCell id="5" value="-float precioDia" style="text;strokeColor=none;fillColor=none;align=left;verticalAlign=top;spacingLeft=4;spacingRight=4;overflow=hidden;rotatable=0;points=[[0,0.5],[1,0.5]];portConstraint=eastwest;" parent="2" vertex="1">
          <mxGeometry y="105.12" width="425" height="30" as="geometry" />
        </mxCell>
        <mxCell id="6" value="-string descripcion" style="text;strokeColor=none;fillColor=none;align=left;verticalAlign=top;spacingLeft=4;spacingRight=4;overflow=hidden;rotatable=0;points=[[0,0.5],[1,0.5]];portConstraint=eastwest;" parent="2" vertex="1">
          <mxGeometry y="135.12" width="425" height="30" as="geometry" />
        </mxCell>
        <mxCell id="7" style="line;strokeWidth=1;fillColor=none;align=left;verticalAlign=middle;spacingTop=-1;spacingLeft=3;spacingRight=3;rotatable=0;labelPosition=right;points=[];portConstraint=eastwest;strokeColor=inherit;" parent="2" vertex="1">
          <mxGeometry y="165.12" width="425" height="8" as="geometry" />
        </mxCell>
        <mxCell id="8" value="+__construct(sku, nombre, precioDia, descripcion)" style="text;strokeColor=none;fillColor=none;align=left;verticalAlign=top;spacingLeft=4;spacingRight=4;overflow=hidden;rotatable=0;points=[[0,0.5],[1,0.5]];portConstraint=eastwest;" parent="2" vertex="1">
          <mxGeometry y="173.12" width="425" height="30" as="geometry" />
        </mxCell>
        <mxCell id="9" value="+getSku() : string" style="text;strokeColor=none;fillColor=none;align=left;verticalAlign=top;spacingLeft=4;spacingRight=4;overflow=hidden;rotatable=0;points=[[0,0.5],[1,0.5]];portConstraint=eastwest;" parent="2" vertex="1">
          <mxGeometry y="203.12" width="425" height="30" as="geometry" />
        </mxCell>
        <mxCell id="10" value="+getNombre() : string" style="text;strokeColor=none;fillColor=none;align=left;verticalAlign=top;spacingLeft=4;spacingRight=4;overflow=hidden;rotatable=0;points=[[0,0.5],[1,0.5]];portConstraint=eastwest;" parent="2" vertex="1">
          <mxGeometry y="233.12" width="425" height="30" as="geometry" />
        </mxCell>
        <mxCell id="11" value="+getPrecioDia() : float" style="text;strokeColor=none;fillColor=none;align=left;verticalAlign=top;spacingLeft=4;spacingRight=4;overflow=hidden;rotatable=0;points=[[0,0.5],[1,0.5]];portConstraint=eastwest;" parent="2" vertex="1">
          <mxGeometry y="263.12" width="425" height="30" as="geometry" />
        </mxCell>
        <mxCell id="12" value="+getDescripcion() : string" style="text;strokeColor=none;fillColor=none;align=left;verticalAlign=top;spacingLeft=4;spacingRight=4;overflow=hidden;rotatable=0;points=[[0,0.5],[1,0.5]];portConstraint=eastwest;" parent="2" vertex="1">
          <mxGeometry y="293.12" width="425" height="30" as="geometry" />
        </mxCell>
        <mxCell id="13" value="+validate() : bool" style="text;strokeColor=none;fillColor=none;align=left;verticalAlign=top;spacingLeft=4;spacingRight=4;overflow=hidden;rotatable=0;points=[[0,0.5],[1,0.5]];portConstraint=eastwest;" parent="2" vertex="1">
          <mxGeometry y="323.12" width="425" height="30" as="geometry" />
        </mxCell>
        <mxCell id="14" value="+calcularPrecio(dias: int, cantidad: int) : float" style="text;strokeColor=none;fillColor=none;align=left;verticalAlign=top;spacingLeft=4;spacingRight=4;overflow=hidden;rotatable=0;points=[[0,0.5],[1,0.5]];portConstraint=eastwest;" parent="2" vertex="1">
          <mxGeometry y="353.12" width="425" height="30" as="geometry" />
        </mxCell>
        <mxCell id="15" value="ManualTool" style="swimlane;fontStyle=1;align=center;verticalAlign=top;childLayout=stackLayout;horizontal=1;startSize=47.2;horizontalStack=0;resizeParent=1;resizeParentMax=0;resizeLast=0;collapsible=0;marginBottom=0;" parent="1" vertex="1">
          <mxGeometry x="8" y="1245" width="398" height="126" as="geometry" />
        </mxCell>
        <mxCell id="16" style="line;strokeWidth=1;fillColor=none;align=left;verticalAlign=middle;spacingTop=-1;spacingLeft=3;spacingRight=3;rotatable=0;labelPosition=right;points=[];portConstraint=eastwest;strokeColor=inherit;" parent="15" vertex="1">
          <mxGeometry y="71" width="398" height="8" as="geometry" />
        </mxCell>
        <mxCell id="17" value="+calcularPrecio(dias: int, cantidad: int) : float" style="text;strokeColor=none;fillColor=none;align=left;verticalAlign=top;spacingLeft=4;spacingRight=4;overflow=hidden;rotatable=0;points=[[0,0.5],[1,0.5]];portConstraint=eastwest;" parent="15" vertex="1">
          <mxGeometry y="79" width="398" height="47" as="geometry" />
        </mxCell>
        <mxCell id="18" value="ElectricTool" style="swimlane;fontStyle=1;align=center;verticalAlign=top;childLayout=stackLayout;horizontal=1;startSize=36.8;horizontalStack=0;resizeParent=1;resizeParentMax=0;resizeLast=0;collapsible=0;marginBottom=0;" parent="1" vertex="1">
          <mxGeometry x="456" y="1212" width="504" height="192" as="geometry" />
        </mxCell>
        <mxCell id="19" value="-string potencia" style="text;strokeColor=none;fillColor=none;align=left;verticalAlign=top;spacingLeft=4;spacingRight=4;overflow=hidden;rotatable=0;points=[[0,0.5],[1,0.5]];portConstraint=eastwest;" parent="18" vertex="1">
          <mxGeometry y="37" width="504" height="37" as="geometry" />
        </mxCell>
        <mxCell id="20" style="line;strokeWidth=1;fillColor=none;align=left;verticalAlign=middle;spacingTop=-1;spacingLeft=3;spacingRight=3;rotatable=0;labelPosition=right;points=[];portConstraint=eastwest;strokeColor=inherit;" parent="18" vertex="1">
          <mxGeometry y="74" width="504" height="8" as="geometry" />
        </mxCell>
        <mxCell id="21" value="+__construct(sku, nombre, precioDia, descripcion, potencia)" style="text;strokeColor=none;fillColor=none;align=left;verticalAlign=top;spacingLeft=4;spacingRight=4;overflow=hidden;rotatable=0;points=[[0,0.5],[1,0.5]];portConstraint=eastwest;" parent="18" vertex="1">
          <mxGeometry y="82" width="504" height="37" as="geometry" />
        </mxCell>
        <mxCell id="22" value="+getPotencia() : string" style="text;strokeColor=none;fillColor=none;align=left;verticalAlign=top;spacingLeft=4;spacingRight=4;overflow=hidden;rotatable=0;points=[[0,0.5],[1,0.5]];portConstraint=eastwest;" parent="18" vertex="1">
          <mxGeometry y="118" width="504" height="37" as="geometry" />
        </mxCell>
        <mxCell id="23" value="+calcularPrecio(dias: int, cantidad: int) : float" style="text;strokeColor=none;fillColor=none;align=left;verticalAlign=top;spacingLeft=4;spacingRight=4;overflow=hidden;rotatable=0;points=[[0,0.5],[1,0.5]];portConstraint=eastwest;" parent="18" vertex="1">
          <mxGeometry y="155" width="504" height="37" as="geometry" />
        </mxCell>
        <mxCell id="24" value="RentalLine" style="swimlane;fontStyle=1;align=center;verticalAlign=top;childLayout=stackLayout;horizontal=1;startSize=32;horizontalStack=0;resizeParent=1;resizeParentMax=0;resizeLast=0;collapsible=0;marginBottom=0;" parent="1" vertex="1">
          <mxGeometry x="174" y="441" width="568" height="264" as="geometry" />
        </mxCell>
        <mxCell id="25" value="-Tool herramienta" style="text;strokeColor=none;fillColor=none;align=left;verticalAlign=top;spacingLeft=4;spacingRight=4;overflow=hidden;rotatable=0;points=[[0,0.5],[1,0.5]];portConstraint=eastwest;" parent="24" vertex="1">
          <mxGeometry y="32" width="568" height="32" as="geometry" />
        </mxCell>
        <mxCell id="26" value="-int cantidad" style="text;strokeColor=none;fillColor=none;align=left;verticalAlign=top;spacingLeft=4;spacingRight=4;overflow=hidden;rotatable=0;points=[[0,0.5],[1,0.5]];portConstraint=eastwest;" parent="24" vertex="1">
          <mxGeometry y="64" width="568" height="32" as="geometry" />
        </mxCell>
        <mxCell id="27" value="-int dias" style="text;strokeColor=none;fillColor=none;align=left;verticalAlign=top;spacingLeft=4;spacingRight=4;overflow=hidden;rotatable=0;points=[[0,0.5],[1,0.5]];portConstraint=eastwest;" parent="24" vertex="1">
          <mxGeometry y="96" width="568" height="32" as="geometry" />
        </mxCell>
        <mxCell id="28" value="-string extra" style="text;strokeColor=none;fillColor=none;align=left;verticalAlign=top;spacingLeft=4;spacingRight=4;overflow=hidden;rotatable=0;points=[[0,0.5],[1,0.5]];portConstraint=eastwest;" parent="24" vertex="1">
          <mxGeometry y="128" width="568" height="32" as="geometry" />
        </mxCell>
        <mxCell id="29" style="line;strokeWidth=1;fillColor=none;align=left;verticalAlign=middle;spacingTop=-1;spacingLeft=3;spacingRight=3;rotatable=0;labelPosition=right;points=[];portConstraint=eastwest;strokeColor=inherit;" parent="24" vertex="1">
          <mxGeometry y="160" width="568" height="8" as="geometry" />
        </mxCell>
        <mxCell id="30" value="+__construct(herramienta: Tool, cantidad: int, dias: int, extra: string)" style="text;strokeColor=none;fillColor=none;align=left;verticalAlign=top;spacingLeft=4;spacingRight=4;overflow=hidden;rotatable=0;points=[[0,0.5],[1,0.5]];portConstraint=eastwest;" parent="24" vertex="1">
          <mxGeometry y="168" width="568" height="32" as="geometry" />
        </mxCell>
        <mxCell id="31" value="+calcularPrecioLinea() : float" style="text;strokeColor=none;fillColor=none;align=left;verticalAlign=top;spacingLeft=4;spacingRight=4;overflow=hidden;rotatable=0;points=[[0,0.5],[1,0.5]];portConstraint=eastwest;" parent="24" vertex="1">
          <mxGeometry y="200" width="568" height="32" as="geometry" />
        </mxCell>
        <mxCell id="32" value="+aplicarDescuento() : float" style="text;strokeColor=none;fillColor=none;align=left;verticalAlign=top;spacingLeft=4;spacingRight=4;overflow=hidden;rotatable=0;points=[[0,0.5],[1,0.5]];portConstraint=eastwest;" parent="24" vertex="1">
          <mxGeometry y="232" width="568" height="32" as="geometry" />
        </mxCell>
        <mxCell id="33" value="Rental" style="swimlane;fontStyle=1;align=center;verticalAlign=top;childLayout=stackLayout;horizontal=1;startSize=29.333333333333332;horizontalStack=0;resizeParent=1;resizeParentMax=0;resizeLast=0;collapsible=0;marginBottom=0;" parent="1" vertex="1">
          <mxGeometry x="169" y="8" width="578" height="360" as="geometry" />
        </mxCell>
        <mxCell id="34" value="-array lineas" style="text;strokeColor=none;fillColor=none;align=left;verticalAlign=top;spacingLeft=4;spacingRight=4;overflow=hidden;rotatable=0;points=[[0,0.5],[1,0.5]];portConstraint=eastwest;" parent="33" vertex="1">
          <mxGeometry y="29" width="578" height="29" as="geometry" />
        </mxCell>
        <mxCell id="35" value="-string cliente" style="text;strokeColor=none;fillColor=none;align=left;verticalAlign=top;spacingLeft=4;spacingRight=4;overflow=hidden;rotatable=0;points=[[0,0.5],[1,0.5]];portConstraint=eastwest;" parent="33" vertex="1">
          <mxGeometry y="59" width="578" height="29" as="geometry" />
        </mxCell>
        <mxCell id="36" value="-DateTime fecha" style="text;strokeColor=none;fillColor=none;align=left;verticalAlign=top;spacingLeft=4;spacingRight=4;overflow=hidden;rotatable=0;points=[[0,0.5],[1,0.5]];portConstraint=eastwest;" parent="33" vertex="1">
          <mxGeometry y="88" width="578" height="29" as="geometry" />
        </mxCell>
        <mxCell id="37" style="line;strokeWidth=1;fillColor=none;align=left;verticalAlign=middle;spacingTop=-1;spacingLeft=3;spacingRight=3;rotatable=0;labelPosition=right;points=[];portConstraint=eastwest;strokeColor=inherit;" parent="33" vertex="1">
          <mxGeometry y="117" width="578" height="8" as="geometry" />
        </mxCell>
        <mxCell id="38" value="+__construct(cliente: string)" style="text;strokeColor=none;fillColor=none;align=left;verticalAlign=top;spacingLeft=4;spacingRight=4;overflow=hidden;rotatable=0;points=[[0,0.5],[1,0.5]];portConstraint=eastwest;" parent="33" vertex="1">
          <mxGeometry y="125" width="578" height="29" as="geometry" />
        </mxCell>
        <mxCell id="39" value="+addLinea(herramienta: Tool, cantidad: int, dias: int, extra: string) : void" style="text;strokeColor=none;fillColor=none;align=left;verticalAlign=top;spacingLeft=4;spacingRight=4;overflow=hidden;rotatable=0;points=[[0,0.5],[1,0.5]];portConstraint=eastwest;" parent="33" vertex="1">
          <mxGeometry y="155" width="578" height="29" as="geometry" />
        </mxCell>
        <mxCell id="40" value="+calcularSubtotal() : float" style="text;strokeColor=none;fillColor=none;align=left;verticalAlign=top;spacingLeft=4;spacingRight=4;overflow=hidden;rotatable=0;points=[[0,0.5],[1,0.5]];portConstraint=eastwest;" parent="33" vertex="1">
          <mxGeometry y="184" width="578" height="29" as="geometry" />
        </mxCell>
        <mxCell id="41" value="+calcularDescuentoTotal() : float" style="text;strokeColor=none;fillColor=none;align=left;verticalAlign=top;spacingLeft=4;spacingRight=4;overflow=hidden;rotatable=0;points=[[0,0.5],[1,0.5]];portConstraint=eastwest;" parent="33" vertex="1">
          <mxGeometry y="213" width="578" height="29" as="geometry" />
        </mxCell>
        <mxCell id="42" value="+calcularIVA() : float" style="text;strokeColor=none;fillColor=none;align=left;verticalAlign=top;spacingLeft=4;spacingRight=4;overflow=hidden;rotatable=0;points=[[0,0.5],[1,0.5]];portConstraint=eastwest;" parent="33" vertex="1">
          <mxGeometry y="243" width="578" height="29" as="geometry" />
        </mxCell>
        <mxCell id="43" value="+calcularTotal() : float" style="text;strokeColor=none;fillColor=none;align=left;verticalAlign=top;spacingLeft=4;spacingRight=4;overflow=hidden;rotatable=0;points=[[0,0.5],[1,0.5]];portConstraint=eastwest;" parent="33" vertex="1">
          <mxGeometry y="272" width="578" height="29" as="geometry" />
        </mxCell>
        <mxCell id="44" value="+validarDatos() : bool" style="text;strokeColor=none;fillColor=none;align=left;verticalAlign=top;spacingLeft=4;spacingRight=4;overflow=hidden;rotatable=0;points=[[0,0.5],[1,0.5]];portConstraint=eastwest;" parent="33" vertex="1">
          <mxGeometry y="301" width="578" height="29" as="geometry" />
        </mxCell>
        <mxCell id="45" value="+procesarFormulario(productos: string) : void" style="text;strokeColor=none;fillColor=none;align=left;verticalAlign=top;spacingLeft=4;spacingRight=4;overflow=hidden;rotatable=0;points=[[0,0.5],[1,0.5]];portConstraint=eastwest;" parent="33" vertex="1">
          <mxGeometry y="331" width="578" height="29" as="geometry" />
        </mxCell>
        <mxCell id="46" value="" style="curved=1;startArrow=block;startSize=16;startFill=0;endArrow=none;exitX=0;exitY=0.98;entryX=0.5;entryY=0;" parent="1" source="2" target="15" edge="1">
          <mxGeometry relative="1" as="geometry">
            <Array as="points">
              <mxPoint x="207" y="1187" />
            </Array>
          </mxGeometry>
        </mxCell>
        <mxCell id="47" value="" style="curved=1;startArrow=block;startSize=16;startFill=0;endArrow=none;exitX=1;exitY=0.98;entryX=0.5;entryY=0;" parent="1" source="2" target="18" edge="1">
          <mxGeometry relative="1" as="geometry">
            <Array as="points">
              <mxPoint x="708" y="1187" />
            </Array>
          </mxGeometry>
        </mxCell>
        <mxCell id="48" value="contiene" style="curved=1;startArrow=diamondThin;startSize=14;startFill=1;endArrow=none;exitX=0.5;exitY=1;entryX=0.5;entryY=0;" parent="1" source="33" target="24" edge="1">
          <mxGeometry relative="1" as="geometry">
            <Array as="points" />
          </mxGeometry>
        </mxCell>
        <mxCell id="49" value="usa" style="curved=1;startArrow=none;endArrow=open;endSize=12;exitX=0.5;exitY=1;entryX=0.5;entryY=0;" parent="1" source="24" target="2" edge="1">
          <mxGeometry relative="1" as="geometry">
            <Array as="points" />
          </mxGeometry>
        </mxCell>
      </root>
    </mxGraphModel>
  </diagram>
</mxfile>
